<svg width="27" height="30" viewBox="0 0 27 30" fill="none" xmlns="http://www.w3.org/2000/svg">
<path d="M0 5.625C0 2.51953 2.51953 0 5.625 0H11.25V11.1738C11.25 11.959 12.1582 12.3984 12.7734 11.9062L15.9375 9.375L19.1016 11.9062C19.7168 12.3984 20.625 11.959 20.625 11.1738V0H22.5H24.375C25.4121 0 26.25 0.837891 26.25 1.875V20.625C26.25 21.6621 25.4121 22.5 24.375 22.5V26.25C25.4121 26.25 26.25 27.0879 26.25 28.125C26.25 29.1621 25.4121 30 24.375 30H22.5H5.625C2.51953 30 0 27.4805 0 24.375V5.625ZM3.75 24.375C3.75 25.4121 4.58789 26.25 5.625 26.25H20.625V22.5H5.625C4.58789 22.5 3.75 23.3379 3.75 24.375Z" fill="#838383"/>
</svg>
