<svg width="14" height="17" viewBox="0 0 14 17" fill="none" xmlns="http://www.w3.org/2000/svg">
<path d="M12 11H6C5.725 11 5.5 10.775 5.5 10.5V2.5C5.5 2.225 5.725 2 6 2H10.3781L12.5 4.12188V10.5C12.5 10.775 12.275 11 12 11ZM6 12.5H12C13.1031 12.5 14 11.6031 14 10.5V4.12188C14 3.725 13.8406 3.34375 13.5594 3.0625L11.4406 0.940625C11.1594 0.659375 10.7781 0.5 10.3813 0.5H6C4.89687 0.5 4 1.39688 4 2.5V10.5C4 11.6031 4.89687 12.5 6 12.5ZM2 4.5C0.896875 4.5 0 5.39687 0 6.5V14.5C0 15.6031 0.896875 16.5 2 16.5H8C9.10312 16.5 10 15.6031 10 14.5V13.5H8.5V14.5C8.5 14.775 8.275 15 8 15H2C1.725 15 1.5 14.775 1.5 14.5V6.5C1.5 6.225 1.725 6 2 6H3V4.5H2Z" fill="black"/>
</svg>
