<svg width="16" height="16" viewBox="0 0 16 16" fill="none" xmlns="http://www.w3.org/2000/svg">
<path d="M12.2343 1.95202C12.6806 1.50575 12.6806 0.780988 12.2343 0.334709C11.788 -0.11157 11.0633 -0.11157 10.617 0.334709L5.71505 5.24021L3.66574 3.1909C3.21946 2.74462 2.4947 2.74462 2.04842 3.1909C1.60214 3.63717 1.60214 4.36193 2.04842 4.80821L4.90461 7.6644C5.35089 8.11068 6.07564 8.11068 6.52192 7.6644L12.2343 1.95202ZM15.6617 6.52192C16.108 6.07564 16.108 5.35089 15.6617 4.90461C15.2154 4.45833 14.4907 4.45833 14.0444 4.90461L5.71505 13.2375L1.95202 9.47808C1.50575 9.0318 0.780988 9.0318 0.334709 9.47808C-0.11157 9.92436 -0.11157 10.6491 0.334709 11.0954L4.90461 15.6653C5.35089 16.1116 6.07564 16.1116 6.52192 15.6653L15.6617 6.52549V6.52192Z" fill="black"/>
</svg>
