<svg width="18" height="18" viewBox="0 0 18 18" fill="none" xmlns="http://www.w3.org/2000/svg">
<path d="M9.97926 0.632742C9.7986 0.246066 9.41683 0 8.99755 0C8.57828 0 8.19991 0.246066 8.01584 0.632742L5.82403 5.28339L0.929098 6.02862C0.52005 6.0919 0.179178 6.38718 0.053055 6.79143C-0.0730679 7.19568 0.0291938 7.64211 0.322344 7.94091L3.87424 11.5651L3.03569 16.6868C2.96752 17.1086 3.13795 17.5375 3.47542 17.7871C3.81288 18.0367 4.25942 18.0683 4.62756 17.8679L9.00096 15.46L13.3744 17.8679C13.7425 18.0683 14.189 18.0402 14.5265 17.7871C14.864 17.534 15.0344 17.1086 14.9662 16.6868L14.1243 11.5651L17.6762 7.94091C17.9693 7.64211 18.075 7.19568 17.9455 6.79143C17.8159 6.38718 17.4785 6.0919 17.0694 6.02862L12.1711 5.28339L9.97926 0.632742Z" fill="#FBA720"/>
</svg>
